<svg viewBox="0 0 158 92" fill="none" xmlns="http://www.w3.org/2000/svg">
    <g clipPath="url(#clip0_584_1330)">
        <path d="M138.668 91.4159H19.331C14.234 91.3696 9.36155 89.3048 5.77367 85.6708C2.18579 82.0367 0.172852 77.1275 0.172852 72.0113C0.172852 66.895 2.18579 61.9858 5.77367 58.3518C9.36155 54.7177 14.234 52.6529 19.331 52.6067H138.668C143.765 52.6529 148.638 54.7177 152.226 58.3518C155.814 61.9858 157.826 66.895 157.826 72.0113C157.826 77.1275 155.814 82.0367 152.226 85.6708C148.638 89.3048 143.765 91.3696 138.668 91.4159ZM19.331 54.4432C14.6892 54.4432 10.2376 56.294 6.95542 59.5885C3.67322 62.883 1.8293 67.3514 1.8293 72.0105C1.8293 76.6696 3.67322 81.1379 6.95542 84.4324C10.2376 87.7269 14.6892 89.5778 19.331 89.5778H138.668C143.31 89.5778 147.762 87.7269 151.044 84.4324C154.326 81.1379 156.17 76.6696 156.17 72.0105C156.17 67.3514 154.326 62.883 151.044 59.5885C147.762 56.294 143.31 54.4432 138.668 54.4432H19.331Z" fill="#03FE33"></path>
        <path d="M150.808 38.6617H107.688V35.4645H147.621V7.79805H150.808V38.6617Z" fill="white"></path>
        <path d="M155.442 13.6421L150.086 8.26581H148.343L142.988 13.6421L140.735 11.3806L147.024 5.067H151.407L157.695 11.3806L155.442 13.6421Z" fill="white"></path>
        <path d="M96.5479 31.7518V32.3941C99.3302 32.7113 100.266 33.6977 100.266 35.5295C100.266 37.6594 98.6698 38.7806 95.7958 38.7806H88.3603V26.0932H95.5904C98.1674 26.0932 99.5815 27.2842 99.5815 28.978C99.5815 30.5164 98.8973 31.3855 96.5479 31.7518ZM91.7368 28.6624V30.9747H94.655C95.7737 30.9747 96.1371 30.4989 96.1371 29.8297C96.1371 29.1604 95.7737 28.6624 94.655 28.6624H91.7368ZM91.7368 36.2162H95.02C96.3883 36.2162 96.7991 35.7134 96.7991 34.8888C96.7991 34.0641 96.3883 33.5153 95.02 33.5153H91.7368V36.2162ZM53.4439 26.098V43.3592H56.8646V26.098H53.4439ZM60.1715 36.01C58.097 36.01 56.8646 34.4082 56.8646 32.4623C56.8646 30.5164 58.097 28.913 60.1715 28.913C62.2698 28.913 63.4785 30.5164 63.4785 32.4623C63.4785 34.4082 62.2698 36.01 60.1715 36.01ZM61.7673 38.9868C64.2084 38.9868 66.8992 36.4223 66.8992 32.4623C66.8992 28.5022 64.2132 25.9378 61.7673 25.9378C59.4653 25.9378 58.1191 27.2652 57.6404 28.9368H56.4317L56.5454 36.2162H57.6404C58.097 37.8639 59.4416 38.9868 61.7673 38.9868ZM22.882 26.098V43.3592H26.3042V26.098H22.882ZM29.6112 36.01C27.535 36.01 26.3042 34.4082 26.3042 32.4623C26.3042 30.5164 27.535 28.913 29.6112 28.913C31.6873 28.913 32.9181 30.5164 32.9181 32.4623C32.9181 34.4082 31.7094 36.01 29.6112 36.01ZM31.207 38.9868C33.6481 38.9868 36.3388 36.4223 36.3388 32.4623C36.3388 28.5022 33.6528 25.9378 31.207 25.9378C28.9033 25.9378 27.5588 27.2652 27.0784 28.9368H25.8697L25.9851 36.2162H27.0784C27.5351 37.8639 28.8812 38.9868 31.207 38.9868ZM44.6638 36.01C42.5877 36.01 41.3553 34.4082 41.3553 32.4623C41.3553 30.5164 42.5877 28.913 44.6638 28.913C46.7399 28.913 47.9708 30.5164 47.9708 32.4623C47.9708 34.4082 46.7684 36.01 44.6638 36.01ZM44.6638 38.9868C48.6991 38.9868 51.3915 36.4223 51.3915 32.4623C51.3915 28.5022 48.7055 25.9378 44.6638 25.9378C40.6222 25.9378 37.9346 28.5022 37.9346 32.4623C37.9346 36.4223 40.6269 38.9868 44.6638 38.9868ZM31.4392 17.7354H24.9849V5.048H28.3598V12.8206L28.2239 16.5967H28.8844L29.1135 14.6508L31.7126 5.0591H38.1447V17.7465H34.7699V9.98181L34.9057 6.20414H34.2453L34.0162 8.15007L31.4392 17.7354ZM110.382 14.9727C108.308 14.9727 107.075 13.3693 107.075 11.4234C107.075 9.47749 108.308 7.8757 110.382 7.8757C112.457 7.8757 113.691 9.47749 113.691 11.4234C113.691 13.3693 112.481 14.9727 110.382 14.9727ZM110.382 17.9479C114.419 17.9479 117.112 15.3835 117.112 11.4234C117.112 7.46336 114.426 4.89892 110.382 4.89892C106.339 4.89892 103.648 7.46336 103.648 11.4234C103.648 15.3835 106.347 17.9543 110.382 17.9543V17.9479ZM60.1383 5.0591V22.3203H63.559V5.0591H60.1383ZM66.8676 14.9727C64.793 14.9727 63.5606 13.3693 63.5606 11.4234C63.5606 9.47749 64.793 7.8757 66.8676 7.8757C68.9658 7.8757 70.1745 9.47749 70.1745 11.4234C70.1745 13.3693 68.9658 14.9727 66.8676 14.9727ZM68.465 17.9543C70.9045 17.9543 73.5952 15.3898 73.5952 11.4298C73.5952 7.46971 70.9092 4.90526 68.465 4.90526C66.1613 4.90526 64.8151 6.23427 64.3364 7.90425H63.1277L63.2415 15.1836H64.3364C64.793 16.8267 66.1376 17.9543 68.465 17.9543ZM81.9202 14.9727C79.8457 14.9727 78.6133 13.3693 78.6133 11.4234C78.6133 9.47749 79.8457 7.8757 81.9202 7.8757C83.9948 7.8757 85.2272 9.47749 85.2272 11.4234C85.2272 13.3693 84.0185 14.9727 81.9202 14.9727ZM81.9202 17.9479C85.9571 17.9479 88.6479 15.3835 88.6479 11.4234C88.6479 7.46336 85.9619 4.89892 81.9202 4.89892C77.8786 4.89892 75.1926 7.46336 75.1926 11.4234C75.1926 15.3835 77.8833 17.9543 81.9202 17.9543V17.9479ZM68.9516 26.098H72.3739V29.5093H75.2179C78.479 29.5093 80.2581 31.341 80.2581 34.1339C80.2581 36.9267 78.479 38.7806 75.2179 38.7806H68.9516V26.098ZM72.3739 32.3941V35.8038H74.7217C76.3871 35.8038 76.8437 35.1695 76.8437 34.1101C76.8437 33.011 76.3871 32.3941 74.7217 32.3941H72.3739ZM82.203 26.098V38.7854H85.6237V26.098H82.203ZM20.1454 38.7854H16.7247V29.0795H11.3195V38.7854H7.90039V26.098H20.1454V38.7854ZM125.618 17.7417H119.164V5.05434H122.539V12.8206L122.403 16.5967H123.063L123.291 14.6508L125.892 5.0591H132.324V17.7465H128.947V9.98181L129.086 6.20414H128.423L128.195 8.15007L125.618 17.7417ZM127.26 0H129.929C129.718 2.29008 128.241 3.70948 125.452 3.70948C122.664 3.70948 121.186 2.29008 120.983 0H123.65C123.741 0.824681 124.266 1.51139 125.452 1.51139C126.716 1.51139 127.168 0.826267 127.26 0ZM98.8878 10.7145V11.3489C101.67 11.6661 102.606 12.6541 102.606 14.4843C102.606 16.6141 101.01 17.7354 98.1358 17.7354H90.7003V5.048H97.9304C100.507 5.048 101.921 6.23903 101.921 7.9328C101.921 9.47749 101.237 10.3418 98.8878 10.7145ZM94.0767 7.62354V9.93582H96.995C98.1136 9.93582 98.4786 9.46004 98.4786 8.79078C98.4786 8.12152 98.1136 7.62354 96.995 7.62354H94.0767ZM94.0767 15.1773H97.36C98.7283 15.1773 99.1391 14.6746 99.1391 13.8499C99.1391 13.0252 98.7283 12.4765 97.36 12.4765H94.0767V15.1773ZM50.7674 17.7417V22.3203H47.4146V17.7417H46.9817C42.7157 17.7417 40.2999 15.0631 40.2999 11.398C40.2999 7.78055 42.6699 5.12571 46.8442 5.05434H47.4146V0.252162H50.7674V5.0591H51.3377C55.4663 5.12888 57.8837 7.78372 57.8837 11.4028C57.8837 15.0647 55.5137 17.7465 51.2003 17.7465L50.7674 17.7417ZM46.9137 15.0171H47.4146V7.80434H46.9596C44.7697 7.87253 43.7206 9.42832 43.7206 11.398C43.7206 13.4153 44.7697 14.9489 46.9137 15.0171ZM50.7674 15.0171H51.2003C53.4123 14.9489 54.4393 13.4153 54.4393 11.4012C54.4393 9.43149 53.4139 7.8757 51.2003 7.80751H50.7674V15.0171ZM20.3824 5.0591H16.9522V14.7665H11.8678V5.0591H8.44549V17.7465H19.3712V21.272H22.6544V14.7697H20.3824V5.0591Z" fill="white"></path>
        <path d="M28.2822 65.2782C30.9682 65.2782 33.2576 66.723 34.3304 69.2937L31.3063 70.3452C30.7454 69.0479 29.6236 68.3136 28.2822 68.3136C26.4036 68.3136 24.9642 69.8314 24.9642 71.8392C24.9642 73.8707 26.402 75.3885 28.2822 75.3885C29.6236 75.3885 30.7454 74.6304 31.3063 73.3268L34.3304 74.3782C33.2623 76.9506 30.9682 78.4001 28.2822 78.4001C24.4523 78.4001 21.5498 75.5597 21.5498 71.8392C21.5498 68.1186 24.457 65.2782 28.2822 65.2782Z" fill="white"></path>
        <path d="M48.9693 73.0143H39.2618C39.701 74.5083 40.9698 75.5597 42.6999 75.5597C44.0666 75.5597 45.2136 74.9 45.8219 73.7978L48.5301 75.0221C47.432 77.0045 45.3353 78.4001 42.6035 78.4001C38.7736 78.4001 35.8711 75.5597 35.8711 71.8392C35.8711 68.1186 38.7246 65.2782 42.4818 65.2782C46.7004 65.2782 49.6519 68.8037 48.9693 73.0143ZM39.3108 70.4927H45.6766C45.4806 69.7977 45.0608 69.1874 44.4829 68.757C43.9049 68.3267 43.2013 68.1005 42.4818 68.1138C40.9935 68.1186 39.7737 69.0733 39.3108 70.4927Z" fill="white"></path>
        <path d="M61.4616 74.9001C61.4616 77.0537 59.1453 78.4002 56.0232 78.4002C53.7306 78.4002 51.5107 77.6421 50.1456 76.2703L51.95 74.05C53.0955 75.1522 54.9014 75.5677 56.0232 75.5677C57.4136 75.5677 58.0472 75.0301 58.0472 74.3926C58.0472 73.441 57.0233 73.1936 55.535 73.1936H53.6974V70.4975H55.5271C57.0154 70.4975 58.0393 70.2533 58.0393 69.2986C58.0393 68.6642 57.4073 68.1234 56.0153 68.1234C54.8935 68.1234 53.0876 68.5389 51.9421 69.6649L50.1377 67.4129C51.5028 66.0411 53.7227 65.283 56.0153 65.283C59.1374 65.283 61.4537 66.6295 61.4537 68.8085C61.4537 70.2041 60.3808 71.5046 57.9176 71.844C60.3808 72.1818 61.4616 73.4791 61.4616 74.9001Z" fill="white"></path>
        <path d="M70.1595 65.2782C73.9894 65.2782 76.8919 68.1186 76.8919 71.8392C76.8919 75.5597 73.9894 78.4001 70.1595 78.4001C66.3296 78.4001 63.4287 75.5597 63.4287 71.8392C63.4287 68.1186 66.3312 65.2782 70.1595 65.2782ZM70.1595 75.3885C72.0634 75.3885 73.4775 73.8707 73.4775 71.8392C73.4775 69.8314 72.0634 68.3136 70.1595 68.3136C68.2825 68.3136 66.8415 69.8314 66.8415 71.8392C66.8431 73.8707 68.2825 75.3885 70.1595 75.3885Z" fill="white"></path>
        <path d="M79.1582 78.1559V65.5224H82.4493V70.3944H88.1642V65.5224H91.4569V78.1559H88.1642V73.284H82.4509V78.1559H79.1582Z" fill="white"></path>
        <path d="M96.0843 65.302C96.6621 65.3091 97.2138 65.5445 97.6199 65.9572C98.026 66.3698 98.2537 66.9265 98.2536 67.5065C98.2536 68.0873 98.0237 68.6444 97.6145 69.0551C97.2053 69.4659 96.6503 69.6966 96.0716 69.6966C95.4929 69.6966 94.938 69.4659 94.5288 69.0551C94.1196 68.6444 93.8897 68.0873 93.8897 67.5065C93.8884 67.2168 93.9443 66.9297 94.0541 66.6618C94.164 66.3938 94.3255 66.1504 94.5296 65.9455C94.7336 65.7405 94.976 65.5782 95.2428 65.4677C95.5097 65.3573 95.7957 65.301 96.0843 65.302ZM96.0843 73.9929C96.6621 74 97.2138 74.2354 97.6199 74.648C98.026 75.0607 98.2537 75.6173 98.2536 76.1973C98.2536 76.7782 98.0237 77.3353 97.6145 77.746C97.2053 78.1567 96.6503 78.3875 96.0716 78.3875C95.4929 78.3875 94.938 78.1567 94.5288 77.746C94.1196 77.3353 93.8897 76.7782 93.8897 76.1973C93.8884 75.9076 93.9443 75.6205 94.0541 75.3526C94.164 75.0847 94.3255 74.8413 94.5296 74.6363C94.7336 74.4314 94.976 74.269 95.2428 74.1586C95.5097 74.0482 95.7957 73.9919 96.0843 73.9929Z" fill="white"></path>
        <path d="M114.619 65.5224H120.595V78.1559H117.496V66.2615L114.076 78.1559H108.106V65.5224H111.205V77.5184L114.619 65.5224Z" fill="white"></path>
        <path d="M129.86 65.5224H135.837V78.1559H132.739V66.2615L129.324 78.1559H123.349V65.5224H126.445V77.5184L129.86 65.5224Z" fill="white"></path>
    </g>
    <defs>
        <clipPath id="clip0_584_1330">
            <rect width="158" height="91.4143" fill="white"></rect>
        </clipPath>
    </defs>
</svg>