<svg className="logo-3" viewBox="0 0 78 29" fill="none" xmlns="http://www.w3.org/2000/svg">
    <g clipPath="url(#clip0_486_4382)">
        <path
            d="M5.3474 20.5447C5.34084 20.4958 5.32772 20.4478 5.30887 20.4023C5.17688 20.0861 4.77272 19.9032 4.34725 19.9677C4.09803 20.0058 3.87586 20.12 3.72256 20.2897C3.57828 20.4487 3.51269 20.6382 3.53729 20.822V20.8236C3.54384 20.8725 3.55696 20.9196 3.57582 20.9643C3.7078 21.2814 4.11278 21.4635 4.53662 21.3989C5.03669 21.3228 5.39986 20.9395 5.34658 20.5438L5.3474 20.5447Z"
            fill="white"></path>
        <path
            d="M6.46239 21.2575C6.45584 21.2086 6.44272 21.1606 6.42386 21.1151C6.30827 20.8386 5.98445 20.664 5.62046 20.6673C5.59505 21.1209 5.21139 21.5257 4.68262 21.6473C4.6859 21.6573 4.68672 21.6672 4.69082 21.6771C4.82198 21.9933 5.22778 22.1763 5.65244 22.1117C6.15251 22.0356 6.51568 21.6523 6.46239 21.2566V21.2575Z"
            fill="white"></path>
        <path
            d="M7.03403 20.1997C7.02747 20.1509 7.01435 20.1029 6.99549 20.0573C6.86433 19.7411 6.45853 19.5582 6.03387 19.6228C5.78466 19.6608 5.56331 19.7751 5.40919 19.9448C5.39197 19.9646 5.37886 19.9853 5.36328 20.006C5.44772 20.0896 5.51576 20.1865 5.56085 20.2957C5.57397 20.3272 5.57889 20.3619 5.58791 20.3951C6.02896 20.3826 6.43393 20.5821 6.62413 20.9107C6.9004 20.7468 7.07174 20.4778 7.03403 20.1997Z"
            fill="white"></path>
        <path
            d="M18.4731 10.0728C18.0517 9.69948 17.4451 9.70776 17.0967 9.8162C17.3246 9.53311 17.8558 9.30134 18.0124 9.27319C18.1313 9.31789 18.4731 9.673 18.4731 10.072V10.0728Z"
            fill="white"></path>
        <path
            d="M19.8203 8.52672C19.5432 7.02849 16.0943 8.02096 14.358 7.38525C14.3243 7.82231 14.8925 8.52175 15.436 8.78084C14.5072 9.59452 13.6734 11.2335 13.5054 13.2366C13.3373 11.2335 12.5044 9.59452 11.5756 8.78084C12.1191 8.52175 12.6872 7.82231 12.6536 7.38525C10.9173 8.02179 7.46839 7.02932 7.19048 8.52672C7.13227 8.84375 7.28312 9.32715 7.44626 9.46621C7.47577 9.36606 7.62825 9.03744 8.10865 8.96294C10.5377 8.59211 12.5667 12.3733 10.7353 13.9013C10.7074 13.9245 10.723 13.9675 10.7607 13.9675H16.25C16.2878 13.9675 16.3033 13.9245 16.2755 13.9013C14.444 12.3724 16.4722 8.59211 18.9021 8.96294C19.3833 9.03661 19.535 9.36523 19.5645 9.46539C19.7276 9.32632 19.8785 8.84375 19.8203 8.52589V8.52672Z"
            fill="white"></path>
        <path
            d="M20.41 5.08826C20.3665 4.94671 21.7905 4.9434 21.7905 5.84317C21.7905 6.4466 20.9388 6.73217 20.9388 7.35878C20.9388 7.65014 21.2495 7.86453 21.3446 7.86453C21.1249 6.85964 22.0324 7.38526 22.2775 7.57316C21.7905 6.22145 22.8866 6.22973 22.7792 5.60974C22.7038 5.17683 21.7512 5.30761 21.406 5.08826C20.7945 4.69922 20.0706 3.18609 19.5935 4.69922C20.4829 5.53276 19.9657 6.76031 18.836 6.76031C18.836 6.76031 18.8294 6.93993 18.8401 6.95483C20.187 6.88861 20.6559 5.88869 20.41 5.08826Z"
            fill="white"></path>
        <path
            d="M4.69863 7.57316C4.94375 7.38526 5.85126 6.85881 5.63238 7.86453C5.72747 7.86453 6.03818 7.65097 6.03818 7.35878C6.03818 6.733 5.18641 6.4466 5.18641 5.84317C5.18641 4.94258 6.61121 4.94671 6.56695 5.08826C6.32101 5.88869 6.79075 6.88779 8.13685 6.95483C8.14669 6.94076 8.14013 6.76031 8.14013 6.76031C7.01127 6.76031 6.49398 5.53276 7.38264 4.69922C6.90552 3.18609 6.18164 4.69922 5.57007 5.08826C5.22494 5.30761 4.27234 5.17683 4.19691 5.60974C4.08952 6.22973 5.18477 6.22145 4.69781 7.57316H4.69863Z"
            fill="white"></path>
        <path
            d="M8.52246 10.0728C8.94466 9.69948 9.55131 9.70776 9.8989 9.8162C9.67182 9.53311 9.13977 9.30134 8.98401 9.27319C8.86514 9.31789 8.52246 9.673 8.52246 10.072V10.0728Z"
            fill="white"></path>
        <path
            d="M14.1453 1.69201L13.4887 0.883301L12.832 1.69201L13.4887 2.54294L14.1462 1.69201H14.1453Z"
            fill="white"></path>
        <path d="M17.8957 4.1372L17.4284 3.56274L16.9619 4.1372L17.4284 4.69924L17.8957 4.1372Z"
            fill="white"></path>
        <path d="M10.0158 4.1372L9.5485 3.56274L9.08203 4.1372L9.5485 4.69924L10.0158 4.1372Z"
            fill="white"></path>
        <path
            d="M8.67796 6.95402H10.42C11.885 6.95402 12.5441 6.04598 12.7433 5.25879H14.2337C14.4329 6.04598 15.0912 6.95402 16.557 6.95402H18.2991C18.2991 6.95402 18.604 6.53684 18.6803 6.3299C18.9557 5.58576 18.604 5.23893 18.0909 5.23893L17.4276 5.84567L16.7644 5.23893C16.2512 5.23893 15.8995 5.58576 16.175 6.3299C16.2102 6.42509 16.2939 6.56498 16.3734 6.68749C15.7553 6.6014 14.9658 6.17428 14.7928 5.25879C14.7928 5.25879 15.2494 4.52624 15.3642 4.2299C15.7758 3.16376 15.2503 2.72754 14.4805 2.72754L13.4869 3.90625L12.4933 2.72754C11.7243 2.72754 11.198 3.16376 11.6104 4.2299C11.7243 4.52624 12.1818 5.25962 12.1818 5.25962C12.008 6.17511 11.2193 6.60223 10.6012 6.68832C10.6815 6.56581 10.7652 6.42592 10.7996 6.33073C11.0742 5.58658 10.7234 5.23976 10.2102 5.23976L9.54694 5.8465L8.88373 5.23976C8.37054 5.23976 8.01966 5.58658 8.29429 6.33073C8.37054 6.53767 8.67632 6.95485 8.67632 6.95485L8.67796 6.95402Z"
            fill="white"></path>
        <path
            d="M26.6921 12.4082C26.356 12.5804 24.3827 13.5133 21.8553 13.1681C21.8815 13.0464 21.9037 12.9239 21.9217 12.8006C23.6039 12.5978 24.9713 12.3097 25.8428 11.8197C26.8364 11.2618 27.27 9.92912 26.7691 8.93748C26.756 8.91264 26.72 8.90768 26.7019 8.9292C26.4273 9.24871 24.7 11.1459 21.9783 11.7361C21.9717 11.5937 21.9586 11.4522 21.9397 11.3106C23.2612 10.5541 24.5524 9.68162 25.1664 8.88367C26.0953 7.67764 26.01 6.13968 25.1263 5.35581C25.1173 5.34753 25.105 5.34422 25.0927 5.34587C25.0804 5.34753 25.0697 5.35415 25.0631 5.36491C24.7836 5.83093 22.166 10.1029 19.2918 11.9472C19.2565 11.9695 19.2213 11.9919 19.186 12.0134C19.104 12.0639 19.095 12.1723 19.1647 12.2361C19.4959 12.539 19.7017 12.9612 19.7017 13.4297C19.7017 14.2442 19.0795 14.9213 18.258 15.0686C17.8399 15.1506 17.2374 15.1266 16.6578 14.9337C16.6315 14.9254 16.6045 14.9428 16.6045 14.9693V17.5494C16.6045 17.5908 16.6668 17.6015 16.6816 17.561C17.0332 16.619 18.0875 16.4195 18.5482 16.4195C18.7138 17.426 19.0106 18.2596 19.3951 18.7082C20.0214 19.4375 21.0453 19.4275 21.4888 18.9226C21.4962 18.9143 21.4995 18.9027 21.497 18.892C21.4954 18.8812 21.488 18.8713 21.4782 18.8663C21.2175 18.7148 19.7255 17.7902 19.427 16.2746C19.5451 16.2333 19.6599 16.1869 19.7705 16.1323C20.2518 16.9368 20.9527 17.6537 21.5175 17.9277C22.4652 18.3871 23.3334 18.1636 23.7179 17.4914C23.7318 17.4674 23.7146 17.4385 23.6867 17.436C23.1006 17.3888 21.3011 16.8681 20.5346 15.5992C20.6223 15.5181 20.7084 15.4328 20.7879 15.3426C21.5897 15.9584 22.7234 16.5039 23.535 16.6148C24.4844 16.7456 25.5608 16.4394 25.587 15.3244C25.587 15.302 25.5673 15.2838 25.5444 15.2855C25.2066 15.3062 22.9718 15.4038 21.379 14.4809C21.4339 14.375 21.4856 14.2665 21.5339 14.1564C21.5339 14.1564 23.9408 14.7309 25.0804 14.5405C26.2133 14.3518 26.8774 13.4984 26.7486 12.438C26.7454 12.4115 26.7142 12.3958 26.6904 12.4082H26.6921Z"
            fill="white"></path>
        <path
            d="M5.44229 14.1563C5.48983 14.2663 5.5423 14.374 5.59723 14.4807C4.00518 15.4037 1.77042 15.306 1.43184 15.2853C1.40807 15.2836 1.3884 15.3027 1.3884 15.325C1.41463 16.44 2.4902 16.7455 3.44034 16.6155C4.25194 16.5046 5.38572 15.9591 6.18748 15.3432C6.26782 15.4335 6.35308 15.5179 6.4408 15.5998C5.67429 16.8688 3.87484 17.3894 3.28868 17.4366C3.25999 17.4391 3.24359 17.4689 3.25753 17.4921C3.64283 18.1642 4.51018 18.3877 5.45868 17.9283C6.0227 17.6543 6.72363 16.9375 7.20485 16.1329C7.31552 16.1875 7.43029 16.2339 7.54752 16.2753C7.24912 17.7909 5.75709 18.7155 5.49639 18.867C5.48656 18.8719 5.48 18.8819 5.47836 18.8926C5.47672 18.9034 5.47918 18.915 5.48655 18.9233C5.93006 19.4274 6.95399 19.4373 7.58113 18.7089C7.96644 18.2602 8.26156 17.4267 8.42798 16.4201C8.88953 16.4201 9.94297 16.6205 10.2947 17.5616C10.3102 17.6013 10.3725 17.5914 10.3725 17.5492V14.9691C10.3725 14.9426 10.3455 14.9252 10.3193 14.9335C9.74048 15.1272 9.13711 15.1504 8.71983 15.0684C7.89757 14.9219 7.27535 14.244 7.27535 13.4295C7.27535 12.961 7.48194 12.5388 7.81232 12.235C7.88282 12.1713 7.8738 12.0629 7.79182 12.0124C7.75575 11.9909 7.7205 11.9685 7.68443 11.9462C4.81268 10.1036 2.19671 5.83407 1.9147 5.36556C1.90159 5.34404 1.87044 5.33907 1.85076 5.35646C0.96784 6.14116 0.882581 7.67829 1.81141 8.88349C2.42626 9.68062 3.71662 10.5531 5.03813 11.3105C5.01927 11.452 5.00697 11.5935 4.9996 11.7359C2.28033 11.1457 0.553843 9.25184 0.276752 8.92985C0.258717 8.90833 0.221006 8.91247 0.208709 8.9373C-0.291366 9.92894 0.142306 11.2608 1.13508 11.8187C2.00652 12.3079 3.37394 12.5959 5.05616 12.7996C5.0742 12.9229 5.09633 13.0454 5.12257 13.1671C2.59759 13.5123 0.625985 12.581 0.28659 12.4072C0.261176 12.394 0.230844 12.4105 0.227564 12.437C0.0996762 13.4982 0.762891 14.3499 1.89585 14.5387C3.03537 14.7291 5.44229 14.1546 5.44229 14.1546V14.1563Z"
            fill="white"></path>
        <path
            d="M14.6299 17.6312C14.9422 17.5145 15.4325 17.6089 15.4152 18.0641C15.4111 18.1676 15.5546 18.1676 15.5653 18.0616C15.6587 17.3796 15.2021 17.1834 14.725 17.2629C14.666 17.0286 14.6168 16.8233 14.5618 16.6205C14.5176 16.4566 14.5012 16.1479 14.6897 16.1479C14.7914 16.1479 14.7504 16.4351 14.7414 16.5584C14.7332 16.6669 14.7717 16.7323 14.8586 16.7356C14.9127 16.7381 14.9808 16.6677 15.0217 16.6213C15.2956 16.3093 15.3587 15.8259 15.0381 15.5933C14.7701 15.3979 14.0995 15.5436 13.915 15.8217C13.8871 15.7166 13.7543 15.5436 13.6904 15.4683C13.6281 15.3946 13.6125 15.3441 13.6978 15.2796C13.7379 15.2481 13.8609 15.1256 13.8609 14.999C13.8609 14.9236 13.8035 14.7854 13.6207 14.7854C13.4764 14.7854 13.3157 14.8864 13.3157 15.1115C13.3157 15.1612 13.328 15.215 13.36 15.2729C13.269 15.258 13.0206 15.2638 12.8936 15.2953L14.6528 20.1707C15.1562 19.9199 15.5259 19.5226 15.5259 19.0955C15.5259 18.7321 14.9955 18.8521 14.7381 19.136C14.6553 18.675 14.5815 18.2495 14.5012 17.8257C14.479 17.709 14.5381 17.6668 14.6315 17.6312H14.6299Z"
            fill="white"></path>
        <path
            d="M12.3073 14.2606C12.263 14.1464 12.1032 14.201 12.1425 14.3194L12.5122 15.3565C12.1958 15.4327 11.6867 15.6653 11.6867 15.974C11.6867 16.3846 12.4065 16.6528 12.8229 16.6205C12.8024 16.714 12.8262 16.7976 12.891 16.8738C12.7401 16.8738 12.4549 16.945 12.3614 17.0468C12.1409 16.839 11.7949 16.7637 11.631 16.8904C11.4662 17.0178 11.4613 17.233 11.6334 17.4772C11.7531 17.6461 11.7982 17.8125 11.6638 18.0078C12.1655 18.0078 11.981 17.3489 12.1769 17.3489C12.1515 17.4764 12.1671 17.6246 12.2245 17.7885C12.2622 17.8977 12.2622 17.9747 12.1974 18.0798C12.0359 18.3414 11.7834 18.9415 11.8179 19.4837C11.6531 19.4829 11.5695 19.4423 11.6277 19.2155C11.649 19.1311 11.5973 19.0706 11.5293 19.1749C11.4539 19.29 11.417 19.4853 11.417 19.5698C11.417 20.0532 11.9868 20.15 12.2048 20.0482C12.8344 20.6632 14.0707 20.4993 14.4847 20.2932L12.3073 14.2614V14.2606ZM12.0663 19.2883C12.0212 19.04 12.3639 18.5963 12.7983 18.1676C12.7057 18.4465 12.7631 18.9274 12.9451 19.093C12.6295 19.093 12.254 19.1526 12.0663 19.2875V19.2883Z"
            fill="white"></path>
        <path
            d="M4.39828 23.1961C4.60241 23.2391 4.81884 23.2623 5.04264 23.2623C6.05837 23.2623 6.92079 22.7896 7.20854 22.1407C7.1405 21.8477 7.09623 21.5464 7.08557 21.2368C7.08557 21.2343 7.08475 21.2327 7.08393 21.2302C7.08557 21.1871 7.06836 21.0439 7.04622 20.9148C6.95522 21.015 6.84619 21.1043 6.71994 21.1731C6.72322 21.1888 6.72978 21.2029 6.73224 21.2186C6.80602 21.7632 6.33956 22.2855 5.69274 22.384C5.62306 22.3948 5.55337 22.3998 5.48533 22.3998C5.01723 22.3998 4.59585 22.1597 4.43927 21.7831C4.42615 21.7516 4.42042 21.7177 4.4114 21.6846C4.39828 21.6846 4.38435 21.6879 4.37123 21.6879C4.18104 21.6879 4.00068 21.6465 3.84082 21.5745C3.89739 21.9677 3.98838 22.3501 4.13841 22.7011C4.21219 22.8732 4.29991 23.038 4.3991 23.1952L4.39828 23.1961Z"
            fill="white"></path>
        <path
            d="M7.88105 23.696C7.67118 24.2879 6.98256 24.7374 6.14062 24.8052C6.96862 25.2878 7.81547 25.5295 8.27619 25.5055C8.26144 25.3631 8.47458 24.7498 8.65822 24.566C8.35981 24.316 8.10076 24.0222 7.88105 23.696Z"
            fill="white"></path>
        <path
            d="M22.4741 20.8998C22.2011 20.7558 21.8641 20.8625 21.7207 21.1382C21.651 21.2723 21.5051 21.3352 21.3649 21.3095L21.6887 20.6838C21.8854 20.6862 22.0773 20.5819 22.174 20.394C22.3117 20.1275 22.2101 19.7981 21.9461 19.6582C21.6821 19.5191 21.3559 19.6218 21.2181 19.8883C21.1206 20.0762 21.1452 20.2947 21.2591 20.4569L20.9353 21.0827C20.8345 20.9809 20.8017 20.8245 20.8714 20.6904C21.014 20.4147 20.9082 20.0745 20.6353 19.9297L18.8547 18.9894L18.803 19.0895C18.6792 19.3304 18.7423 19.6259 18.9539 19.7931C18.8858 20.0158 18.9612 20.2575 19.1424 20.4015C19.0629 20.6606 19.1785 20.9404 19.4162 21.067L19.7302 21.2325C19.7204 21.235 19.7097 21.2342 19.7007 21.2367C19.563 21.2772 19.4597 21.36 19.3957 21.4842C19.2596 21.7466 19.4613 22.0189 19.7589 22.321C19.6712 22.326 19.5884 22.3401 19.5089 22.3641L19.5072 22.3599C18.9801 22.4344 17.5422 22.1124 17.6815 21.8981C19.2572 19.6598 18.0521 18.3272 16.6035 18.4016V19.9048C16.6035 20.3874 16.1862 20.7789 15.6722 20.7789H14.6721C13.9547 20.7789 13.4875 21.5074 13.4875 21.5074C13.4875 21.5074 13.0202 20.7789 12.3028 20.7789H11.3027C10.7887 20.7789 10.3722 20.3874 10.3722 19.9048V18.4016C8.92365 18.3272 7.71691 19.6598 9.29338 21.8981C9.42454 22.0984 8.10713 22.4129 7.37833 22.3724C6.99877 23.0461 6.09535 23.5221 5.04273 23.5221C4.89435 23.5221 4.74843 23.5122 4.60742 23.494C4.92468 23.9062 5.31901 24.2571 5.73628 24.5469C5.79613 24.551 5.85761 24.5535 5.9191 24.5535C6.86596 24.5535 7.63903 24.0312 7.68494 23.3772C7.66362 23.3392 7.64149 23.3011 7.62099 23.2614C8.22518 22.9005 9.20484 22.6521 10.0337 22.6521C10.1919 22.6521 10.2657 22.5172 10.2115 22.3848C9.80493 21.3964 10.6797 20.6804 11.5847 21.2632C11.9798 21.5173 12.3807 22.0181 12.6824 22.8533C11.1969 23.2167 9.33273 24.2166 8.95562 25.3084C8.81052 25.7297 9.2901 26.305 9.87297 26.4201C9.88363 26.4225 9.89429 26.4201 9.9033 26.4143C9.91232 26.4085 9.91806 26.3994 9.92052 26.3886C10.2247 24.7588 11.961 23.5436 12.8644 23.3375C12.9095 23.46 12.8947 23.4203 12.9406 23.5428C11.9569 24.013 11.0027 25.0038 10.7305 26.1817C10.6059 26.7214 11.201 27.2072 11.6929 27.3405C11.7175 27.3471 11.7421 27.3297 11.7429 27.3057C11.8364 25.8158 12.4881 24.551 13.0718 23.9757C13.0882 24.0883 13.0997 24.2009 13.1079 24.3143C13.1079 24.3143 12.5103 25.9954 12.5103 27.2221C12.5103 27.7925 13.3505 28.1914 13.4743 28.2469C13.6293 28.1914 14.4687 27.7925 14.4687 27.2221C14.4687 25.9954 13.8711 24.3143 13.8711 24.3143C13.8793 24.2009 13.8916 24.0875 13.9072 23.9757C14.4901 24.551 15.1426 25.8158 15.2353 27.3057C15.2369 27.3297 15.2615 27.348 15.2853 27.3413C15.778 27.2081 16.3731 26.7222 16.2485 26.1825C15.9755 25.0046 15.0221 24.0138 14.0384 23.5436C14.0834 23.4211 14.0687 23.4608 14.1138 23.3383C15.018 23.5445 16.7535 24.7596 17.0577 26.3894C17.0601 26.4002 17.0659 26.4093 17.0749 26.4151C17.0839 26.4209 17.0946 26.4225 17.1052 26.4209C17.6873 26.305 18.1685 25.7305 18.0217 25.3092C17.6455 24.2174 15.7804 23.2175 14.295 22.8541C14.5975 22.0189 14.9983 21.5181 15.3935 21.264C16.2985 20.6813 17.1733 21.3973 16.7666 22.3856C16.7125 22.518 16.7863 22.653 16.9445 22.653C17.6036 22.653 18.3611 22.8094 18.9481 23.0553C18.9383 23.3524 19.0965 23.6686 19.376 23.9087L19.381 23.9169C19.1342 23.9666 18.9071 24.0618 18.7563 24.272C18.5644 24.5386 18.5382 24.9392 18.6743 25.4913L18.3808 26.3124C18.3661 26.3621 18.3882 26.4159 18.4341 26.4407C18.48 26.4648 18.5366 26.4532 18.5685 26.4118L19.0694 25.6991C19.5949 25.4963 19.9065 25.2471 20.0138 24.9359C20.0983 24.6917 20.0466 24.4484 19.9458 24.2158C20.4377 24.3565 20.9263 24.2191 21.1189 23.8474C21.2542 23.5867 21.2099 23.2713 21.0378 22.9923C21.4477 23.0652 21.7805 23.0751 21.9166 22.8144C21.9805 22.691 21.9896 22.5586 21.9445 22.4204C21.9412 22.4113 21.9346 22.4022 21.9314 22.3931L22.2462 22.5594C22.4847 22.6844 22.7774 22.6207 22.9438 22.4071C23.1643 22.4758 23.4037 22.3997 23.5464 22.2167C23.8029 22.297 24.08 22.1803 24.2055 21.9403L24.2571 21.8401L22.4765 20.8998H22.4741ZM18.9055 25.0336C18.8989 24.8399 18.9678 24.5824 19.0408 24.4806C19.0932 24.4078 19.1916 24.354 19.2818 24.3167L18.9055 25.0336ZM19.6802 24.8184C19.6392 24.9376 19.4629 25.1404 19.3006 25.2455L19.6868 24.5096C19.7072 24.6031 19.7097 24.7356 19.6802 24.8184ZM20.2844 22.3401C20.268 22.3244 20.2516 22.3078 20.2352 22.2921C20.0639 22.1265 19.6613 21.7391 19.7089 21.6489C19.7277 21.6125 19.7548 21.5918 19.7991 21.5785C19.9901 21.5223 20.3393 21.6522 20.5795 21.7706L20.2844 22.3401ZM21.6026 22.6497C21.5559 22.7399 21.0107 22.6281 20.7787 22.5801C20.7574 22.576 20.7353 22.571 20.714 22.5669L21.0083 21.9982C21.2403 22.1298 21.5444 22.345 21.6075 22.5354C21.6223 22.5801 21.6207 22.6141 21.6018 22.6505L21.6026 22.6497Z"
            fill="white"></path>
        <path
            d="M33.6479 12.4657L33.6446 10.773L32.8134 12.1835H32.6625L31.8312 10.7829V12.4657H31.5156V10.1431H31.7853L32.7453 11.7754L33.6922 10.1431H33.9619L33.9652 12.4657H33.6496H33.6479Z"
            fill="white"></path>
        <path
            d="M34.6279 10.707H34.9436V11.9876L36.0117 10.707H36.2979V12.466H35.9822V11.1855L34.9173 12.466H34.6279V10.707Z"
            fill="white"></path>
        <path
            d="M36.9082 10.707H37.2238V11.4537H38.2166V10.707H38.5322V12.466H38.2166V11.7293H37.2238V12.466H36.9082V10.707Z"
            fill="white"></path>
        <path
            d="M39.1465 10.707H39.4621V11.9876L40.5303 10.707H40.8164V12.466H40.5008V11.1855L39.4359 12.466H39.1465V10.707Z"
            fill="white"></path>
        <path
            d="M41.7118 12.3698C41.5724 12.292 41.4634 12.1852 41.3847 12.0495C41.306 11.9137 41.2666 11.759 41.2666 11.5868C41.2666 11.4146 41.306 11.2598 41.3847 11.1241C41.4634 10.9883 41.5724 10.8815 41.7118 10.8054C41.8511 10.7292 42.0093 10.6912 42.1864 10.6912C42.3438 10.6912 42.4848 10.7234 42.6086 10.7872C42.7324 10.8517 42.8283 10.9445 42.8964 11.0661L42.6562 11.2217C42.6012 11.1381 42.5332 11.0744 42.452 11.0322C42.3709 10.99 42.2815 10.9693 42.1823 10.9693C42.0684 10.9693 41.9659 10.9949 41.8749 11.0454C41.7839 11.0968 41.7126 11.1688 41.6609 11.2631C41.6093 11.3575 41.5839 11.4651 41.5839 11.5868C41.5839 11.7085 41.6093 11.8194 41.6609 11.9137C41.7126 12.0081 41.7839 12.0801 41.8749 12.1314C41.9659 12.1828 42.0684 12.2076 42.1823 12.2076C42.2807 12.2076 42.3709 12.1869 42.452 12.1447C42.5332 12.1025 42.6012 12.0396 42.6562 11.9551L42.8964 12.1074C42.8283 12.2291 42.7324 12.3227 42.6086 12.388C42.4848 12.4534 42.3438 12.4857 42.1864 12.4857C42.0093 12.4857 41.8503 12.4468 41.7118 12.3698Z"
            fill="white"></path>
        <path
            d="M44.5795 10.986H43.9417V12.466H43.6261V10.986H42.9883V10.707H44.5787V10.986H44.5795Z"
            fill="white"></path>
        <path
            d="M46.394 11.6927H44.9807C45.0003 11.8475 45.0676 11.9725 45.1832 12.0661C45.2979 12.1604 45.4414 12.2068 45.6119 12.2068C45.8201 12.2068 45.9874 12.1364 46.1144 11.9949L46.2882 12.2001C46.2095 12.2929 46.1112 12.364 45.9939 12.4129C45.8767 12.4617 45.7455 12.4857 45.6012 12.4857C45.4168 12.4857 45.2537 12.4476 45.1118 12.3715C44.9692 12.2953 44.8593 12.1886 44.7814 12.0512C44.7036 11.9137 44.665 11.759 44.665 11.5868C44.665 11.4146 44.7028 11.2623 44.7782 11.1257C44.8536 10.9883 44.9577 10.8815 45.0905 10.8054C45.2233 10.7292 45.3725 10.6912 45.5389 10.6912C45.7054 10.6912 45.8537 10.7292 45.9841 10.8054C46.1144 10.8815 46.2161 10.9883 46.2899 11.1257C46.3628 11.2631 46.3997 11.4204 46.3997 11.5967C46.3997 11.6207 46.3973 11.653 46.3932 11.6927H46.394ZM45.1602 11.0992C45.0585 11.192 44.9987 11.3136 44.9815 11.4643H46.0989C46.0816 11.3161 46.0218 11.1953 45.9201 11.1009C45.8185 11.0065 45.6914 10.9594 45.5406 10.9594C45.3897 10.9594 45.2627 11.0057 45.161 11.0992H45.1602Z"
            fill="white"></path>
        <path
            d="M48.2669 10.8031C48.4005 10.8784 48.5055 10.9835 48.5809 11.1185C48.6563 11.2534 48.694 11.4098 48.694 11.5861C48.694 11.7625 48.6563 11.9197 48.5809 12.0555C48.5055 12.1912 48.4005 12.2972 48.2669 12.3725C48.1333 12.4478 47.9824 12.4851 47.8136 12.4851C47.689 12.4851 47.5742 12.4611 47.4701 12.4122C47.366 12.3634 47.2774 12.293 47.2053 12.1995V13.1084H46.8896V10.7063H47.1922V10.9852C47.2627 10.8875 47.3512 10.8147 47.4586 10.7642C47.566 10.7145 47.684 10.6897 47.8136 10.6897C47.9824 10.6897 48.1333 10.7269 48.2669 10.8023V10.8031ZM48.0882 12.1292C48.1767 12.077 48.2472 12.0042 48.2989 11.9098C48.3505 11.8154 48.3759 11.7078 48.3759 11.5861C48.3759 11.4645 48.3505 11.3569 48.2989 11.2625C48.2472 11.1681 48.1776 11.0961 48.0882 11.0448C47.9997 10.9935 47.8988 10.9686 47.7873 10.9686C47.6758 10.9686 47.5783 10.9943 47.4897 11.0465C47.4012 11.0986 47.3307 11.1706 47.2791 11.2642C47.2274 11.3569 47.202 11.4645 47.202 11.5861C47.202 11.7078 47.2274 11.8154 47.2774 11.9098C47.3274 12.0042 47.3979 12.077 47.4881 12.1292C47.5775 12.1813 47.6775 12.207 47.7873 12.207C47.8972 12.207 47.9997 12.1813 48.0882 12.1292Z"
            fill="white"></path>
        <path
            d="M49.4354 12.3698C49.296 12.292 49.187 12.1852 49.1083 12.0495C49.0296 11.9137 48.9902 11.759 48.9902 11.5868C48.9902 11.4146 49.0296 11.2598 49.1083 11.1241C49.187 10.9883 49.296 10.8815 49.4354 10.8054C49.5747 10.7292 49.733 10.6912 49.91 10.6912C50.0674 10.6912 50.2085 10.7234 50.3322 10.7872C50.456 10.8517 50.5519 10.9445 50.62 11.0661L50.3798 11.2217C50.3249 11.1381 50.2568 11.0744 50.1757 11.0322C50.0945 10.99 50.0051 10.9693 49.9059 10.9693C49.792 10.9693 49.6895 10.9949 49.5985 11.0454C49.5075 11.0968 49.4362 11.1688 49.3846 11.2631C49.3329 11.3575 49.3075 11.4651 49.3075 11.5868C49.3075 11.7085 49.3329 11.8194 49.3846 11.9137C49.4362 12.0081 49.5075 12.0801 49.5985 12.1314C49.6895 12.1828 49.792 12.2076 49.9059 12.2076C50.0043 12.2076 50.0945 12.1869 50.1757 12.1447C50.2568 12.1025 50.3249 12.0396 50.3798 11.9551L50.62 12.1074C50.5519 12.2291 50.456 12.3227 50.3322 12.388C50.2085 12.4534 50.0674 12.4857 49.91 12.4857C49.733 12.4857 49.5739 12.4468 49.4354 12.3698Z"
            fill="white"></path>
        <path
            d="M52.3031 10.986H51.6653V12.466H51.3497V10.986H50.7119V10.707H52.3023V10.986H52.3031Z"
            fill="white"></path>
        <path
            d="M54.15 11.9818C54.15 12.1366 54.0926 12.2557 53.9778 12.3402C53.863 12.4238 53.6917 12.466 53.4638 12.466H52.626V10.707H53.4343C53.6401 10.707 53.8016 10.7459 53.9172 10.8246C54.0336 10.9032 54.091 11.0141 54.091 11.1582C54.091 11.2509 54.0664 11.3312 54.0172 11.399C53.968 11.4669 53.8991 11.5182 53.8114 11.553C54.0368 11.6109 54.15 11.7533 54.15 11.9809V11.9818ZM52.9342 11.4644H53.4072C53.5277 11.4644 53.6187 11.4421 53.6819 11.3982C53.745 11.3543 53.7753 11.2898 53.7753 11.2053C53.7753 11.0373 53.6524 10.9529 53.4072 10.9529H52.9342V11.4644ZM53.736 12.1581C53.8016 12.1159 53.8344 12.0505 53.8344 11.9619C53.8344 11.8733 53.804 11.8038 53.7442 11.7591C53.6835 11.7152 53.5892 11.6929 53.4597 11.6929H52.9342V12.2202H53.44C53.5712 12.2202 53.6704 12.1995 53.736 12.1572V12.1581Z"
            fill="white"></path>
        <path
            d="M54.9227 12.3698C54.7849 12.292 54.6767 12.1852 54.5988 12.0495C54.521 11.9137 54.4824 11.759 54.4824 11.5868C54.4824 11.4146 54.521 11.2598 54.5988 11.1241C54.6767 10.9883 54.7849 10.8815 54.9227 10.8054C55.0604 10.7292 55.2161 10.6912 55.3891 10.6912C55.5621 10.6912 55.717 10.7292 55.8539 10.8054C55.9908 10.8815 56.0982 10.9875 56.1761 11.1241C56.254 11.2598 56.2925 11.4146 56.2925 11.5868C56.2925 11.759 56.254 11.9137 56.1761 12.0495C56.0982 12.1852 55.9908 12.292 55.8539 12.3698C55.717 12.4468 55.5621 12.4857 55.3891 12.4857C55.2161 12.4857 55.0604 12.4468 54.9227 12.3698ZM55.69 12.129C55.7785 12.0768 55.8482 12.004 55.8982 11.9096C55.949 11.8152 55.9736 11.7076 55.9736 11.586C55.9736 11.4643 55.9482 11.3567 55.8982 11.2623C55.8482 11.1679 55.7785 11.0959 55.69 11.0446C55.6014 10.9933 55.5006 10.9685 55.3891 10.9685C55.2776 10.9685 55.1776 10.9941 55.0882 11.0446C54.9997 11.0959 54.9292 11.1679 54.8776 11.2623C54.8259 11.3567 54.8005 11.4643 54.8005 11.586C54.8005 11.7076 54.8259 11.8152 54.8776 11.9096C54.9292 12.004 54.9989 12.0768 55.0882 12.129C55.1768 12.1811 55.2776 12.2068 55.3891 12.2068C55.5006 12.2068 55.6014 12.1811 55.69 12.129Z"
            fill="white"></path>
        <path
            d="M32.4472 14.7854C32.5906 14.8632 32.7029 14.97 32.7841 15.1074C32.8653 15.2448 32.9054 15.3988 32.9054 15.5685C32.9054 15.7382 32.8653 15.8963 32.7841 16.0328C32.7029 16.1702 32.5906 16.277 32.4472 16.3548C32.3037 16.4318 32.143 16.4707 31.9659 16.4707C31.8126 16.4707 31.6741 16.4467 31.5503 16.3979C31.4265 16.349 31.3216 16.2787 31.2363 16.1851L31.4208 15.9989C31.561 16.1388 31.738 16.2083 31.9528 16.2083C32.1233 16.2083 32.2693 16.1595 32.3898 16.061C32.5103 15.9625 32.5824 15.8333 32.607 15.6744H31.7331V15.4385H32.6005C32.5718 15.2854 32.4988 15.162 32.3799 15.0685C32.2619 14.9741 32.1192 14.927 31.9528 14.927C31.7405 14.927 31.5626 14.9981 31.4208 15.1397L31.2363 14.9576C31.3216 14.8624 31.4273 14.7904 31.552 14.7415C31.6766 14.6927 31.8151 14.6687 31.9659 14.6687C32.143 14.6687 32.3037 14.7076 32.4472 14.7846V14.7854Z"
            fill="white"></path>
        <path
            d="M34.0297 15.7049H33.6682V16.4482H33.3525V14.6892H33.6682V15.4325H34.0362L34.6019 14.6892H34.9405L34.2797 15.5352L34.9864 16.4473H34.615L34.0297 15.704V15.7049Z"
            fill="white"></path>
        <path
            d="M35.5389 16.352C35.4011 16.2742 35.2929 16.1674 35.215 16.0317C35.1372 15.8959 35.0986 15.7411 35.0986 15.569C35.0986 15.3968 35.1372 15.242 35.215 15.1063C35.2929 14.9705 35.4011 14.8637 35.5389 14.7876C35.6774 14.7114 35.8324 14.6733 36.0053 14.6733C36.1783 14.6733 36.3332 14.7114 36.4701 14.7876C36.6071 14.8637 36.7144 14.9697 36.7923 15.1063C36.8702 15.242 36.9087 15.3968 36.9087 15.569C36.9087 15.7411 36.8702 15.8959 36.7923 16.0317C36.7144 16.1674 36.6071 16.2742 36.4701 16.352C36.3332 16.429 36.1783 16.4679 36.0053 16.4679C35.8324 16.4679 35.6766 16.429 35.5389 16.352ZM36.3062 16.1111C36.3947 16.059 36.4644 15.9861 36.5152 15.8918C36.5661 15.7974 36.5907 15.6898 36.5907 15.5681C36.5907 15.4465 36.5652 15.3388 36.5152 15.2445C36.4644 15.1501 36.3955 15.0781 36.3062 15.0268C36.2177 14.9755 36.1168 14.9506 36.0053 14.9506C35.8938 14.9506 35.793 14.9763 35.7045 15.0268C35.6159 15.0781 35.5454 15.1501 35.4938 15.2445C35.4421 15.3388 35.4167 15.4465 35.4167 15.5681C35.4167 15.6898 35.4421 15.7974 35.4938 15.8918C35.5454 15.9861 35.6151 16.059 35.7045 16.1111C35.793 16.1633 35.893 16.1889 36.0053 16.1889C36.1176 16.1889 36.2177 16.1633 36.3062 16.1111Z"
            fill="white"></path>
        <path
            d="M37.3662 14.6892H37.6818V15.4358H38.6746V14.6892H38.9902V16.4482H38.6746V15.7115H37.6818V16.4482H37.3662V14.6892Z"
            fill="white"></path>
        <path
            d="M39.8826 16.352C39.7449 16.2742 39.6367 16.1674 39.5588 16.0317C39.4809 15.8959 39.4424 15.7411 39.4424 15.569C39.4424 15.3968 39.4809 15.242 39.5588 15.1063C39.6367 14.9705 39.7449 14.8637 39.8826 14.7876C40.0203 14.7114 40.1761 14.6733 40.3491 14.6733C40.5221 14.6733 40.677 14.7114 40.8139 14.7876C40.9508 14.8637 41.0582 14.9697 41.1361 15.1063C41.214 15.242 41.2525 15.3968 41.2525 15.569C41.2525 15.7411 41.214 15.8959 41.1361 16.0317C41.0582 16.1674 40.9508 16.2742 40.8139 16.352C40.677 16.429 40.5221 16.4679 40.3491 16.4679C40.1761 16.4679 40.0203 16.429 39.8826 16.352ZM40.6499 16.1111C40.7385 16.059 40.8082 15.9861 40.8582 15.8918C40.909 15.7974 40.9336 15.6898 40.9336 15.5681C40.9336 15.4465 40.9082 15.3388 40.8582 15.2445C40.8082 15.1501 40.7385 15.0781 40.6499 15.0268C40.5614 14.9755 40.4606 14.9506 40.3491 14.9506C40.2376 14.9506 40.1376 14.9763 40.0482 15.0268C39.9597 15.0781 39.8892 15.1501 39.8375 15.2445C39.7859 15.3388 39.7605 15.4465 39.7605 15.5681C39.7605 15.6898 39.7859 15.7974 39.8375 15.8918C39.8892 15.9861 39.9589 16.059 40.0482 16.1111C40.1367 16.1633 40.2376 16.1889 40.3491 16.1889C40.4606 16.1889 40.5614 16.1633 40.6499 16.1111Z"
            fill="white"></path>
        <path
            d="M43.7183 14.6892V16.4482H43.4322V15.1635L42.7813 16.2487H42.6427L41.9984 15.1602V16.4482H41.709V14.6892H42.0344L42.7182 15.877L43.4215 14.6892H43.7175H43.7183Z"
            fill="white"></path>
        <path
            d="M44.334 14.6892H44.6496V15.9697L45.7178 14.6892H46.0039V16.4482H45.6883V15.1676L44.6234 16.4482H44.334V14.6892Z"
            fill="white"></path>
        <path
            d="M48.0047 14.6892V16.4482H47.6891V15.738C47.5005 15.8265 47.3128 15.8704 47.1267 15.8704C46.9095 15.8704 46.7422 15.8199 46.6234 15.7181C46.5053 15.6163 46.4463 15.464 46.4463 15.2604V14.6892H46.7619V15.2405C46.7619 15.3622 46.7996 15.454 46.875 15.5161C46.9505 15.5782 47.0562 15.6088 47.1923 15.6088C47.3456 15.6088 47.5112 15.5699 47.6883 15.493V14.69H48.0039L48.0047 14.6892Z"
            fill="white"></path>
        <path
            d="M50.1831 15.6749H48.7697C48.7894 15.8297 48.8566 15.9547 48.9722 16.0482C49.087 16.1426 49.2304 16.1889 49.401 16.1889C49.6092 16.1889 49.7764 16.1186 49.9035 15.977L50.0773 16.1823C49.9986 16.275 49.9002 16.3462 49.783 16.3951C49.6658 16.4439 49.5346 16.4679 49.3903 16.4679C49.2059 16.4679 49.0427 16.4298 48.9009 16.3537C48.7582 16.2775 48.6484 16.1707 48.5705 16.0333C48.4926 15.8959 48.4541 15.7411 48.4541 15.569C48.4541 15.3968 48.4918 15.2445 48.5672 15.1079C48.6427 14.9705 48.7468 14.8637 48.8796 14.7876C49.0124 14.7114 49.1616 14.6733 49.328 14.6733C49.4944 14.6733 49.6428 14.7114 49.7732 14.7876C49.9035 14.8637 50.0052 14.9705 50.0789 15.1079C50.1519 15.2453 50.1888 15.4026 50.1888 15.5789C50.1888 15.6029 50.1863 15.6352 50.1822 15.6749H50.1831ZM48.9493 15.0814C48.8476 15.1741 48.7878 15.2958 48.7705 15.4465H49.8879C49.8707 15.2983 49.8109 15.1774 49.7092 15.0831C49.6076 14.9887 49.4805 14.9415 49.3296 14.9415C49.1788 14.9415 49.0517 14.9879 48.9501 15.0814H48.9493Z"
            fill="white"></path>
        <path
            d="M50.9627 16.352C50.8234 16.2742 50.7143 16.1674 50.6356 16.0317C50.5569 15.8959 50.5176 15.7411 50.5176 15.569C50.5176 15.3968 50.5569 15.242 50.6356 15.1063C50.7143 14.9705 50.8234 14.8637 50.9627 14.7876C51.1021 14.7114 51.2603 14.6733 51.4374 14.6733C51.5948 14.6733 51.7358 14.7056 51.8596 14.7694C51.9834 14.8339 52.0793 14.9266 52.1473 15.0483L51.9071 15.2039C51.8522 15.1203 51.7842 15.0566 51.703 15.0144C51.6218 14.9722 51.5325 14.9515 51.4333 14.9515C51.3193 14.9515 51.2169 14.9771 51.1259 15.0276C51.0349 15.0789 50.9635 15.1509 50.9119 15.2453C50.8603 15.3397 50.8348 15.4473 50.8348 15.569C50.8348 15.6906 50.8603 15.8016 50.9119 15.8959C50.9635 15.9903 51.0349 16.0623 51.1259 16.1136C51.2169 16.1649 51.3193 16.1898 51.4333 16.1898C51.5317 16.1898 51.6218 16.1691 51.703 16.1269C51.7842 16.0847 51.8522 16.0217 51.9071 15.9373L52.1473 16.0896C52.0793 16.2113 51.9834 16.3048 51.8596 16.3702C51.7358 16.4356 51.5948 16.4679 51.4374 16.4679C51.2603 16.4679 51.1013 16.429 50.9627 16.352Z"
            fill="white"></path>
        <path
            d="M53.2328 15.7049H52.8713V16.4482H52.5557V14.6892H52.8713V15.4325H53.2394L53.805 14.6892H54.1436L53.4829 15.5352L54.1895 16.4473H53.8181L53.2336 15.704L53.2328 15.7049Z"
            fill="white"></path>
        <path
            d="M54.742 16.352C54.6043 16.2742 54.496 16.1674 54.4182 16.0317C54.3403 15.8959 54.3018 15.7411 54.3018 15.569C54.3018 15.3968 54.3403 15.242 54.4182 15.1063C54.496 14.9705 54.6043 14.8637 54.742 14.7876C54.8805 14.7114 55.0355 14.6733 55.2085 14.6733C55.3814 14.6733 55.5364 14.7114 55.6733 14.7876C55.8102 14.8637 55.9176 14.9697 55.9955 15.1063C56.0733 15.242 56.1119 15.3968 56.1119 15.569C56.1119 15.7411 56.0733 15.8959 55.9955 16.0317C55.9176 16.1674 55.8102 16.2742 55.6733 16.352C55.5364 16.429 55.3814 16.4679 55.2085 16.4679C55.0355 16.4679 54.8797 16.429 54.742 16.352ZM55.5093 16.1111C55.5979 16.059 55.6675 15.9861 55.7184 15.8918C55.7692 15.7974 55.7938 15.6898 55.7938 15.5681C55.7938 15.4465 55.7684 15.3388 55.7184 15.2445C55.6675 15.1501 55.5987 15.0781 55.5093 15.0268C55.4208 14.9755 55.3199 14.9506 55.2085 14.9506C55.097 14.9506 54.9961 14.9763 54.9076 15.0268C54.8191 15.0781 54.7485 15.1501 54.6969 15.2445C54.6453 15.3388 54.6198 15.4465 54.6198 15.5681C54.6198 15.6898 54.6453 15.7974 54.6969 15.8918C54.7485 15.9861 54.8182 16.059 54.9076 16.1111C54.9961 16.1633 55.0961 16.1889 55.2085 16.1889C55.3208 16.1889 55.4208 16.1633 55.5093 16.1111Z"
            fill="white"></path>
        <path d="M57.8505 14.9682H56.884V16.4482H56.5684V14.6892H57.8505V14.9682Z" fill="white"></path>
        <path
            d="M58.3768 16.352C58.239 16.2742 58.1308 16.1674 58.0529 16.0317C57.9751 15.8959 57.9365 15.7411 57.9365 15.569C57.9365 15.3968 57.9751 15.242 58.0529 15.1063C58.1308 14.9705 58.239 14.8637 58.3768 14.7876C58.5145 14.7114 58.6702 14.6733 58.8432 14.6733C59.0162 14.6733 59.1711 14.7114 59.308 14.7876C59.445 14.8637 59.5523 14.9697 59.6302 15.1063C59.7081 15.242 59.7466 15.3968 59.7466 15.569C59.7466 15.7411 59.7081 15.8959 59.6302 16.0317C59.5523 16.1674 59.445 16.2742 59.308 16.352C59.1711 16.429 59.0162 16.4679 58.8432 16.4679C58.6702 16.4679 58.5145 16.429 58.3768 16.352ZM59.1441 16.1111C59.2326 16.059 59.3023 15.9861 59.3523 15.8918C59.4031 15.7974 59.4277 15.6898 59.4277 15.5681C59.4277 15.4465 59.4023 15.3388 59.3523 15.2445C59.3023 15.1501 59.2326 15.0781 59.1441 15.0268C59.0555 14.9755 58.9547 14.9506 58.8432 14.9506C58.7317 14.9506 58.6317 14.9763 58.5424 15.0268C58.4538 15.0781 58.3833 15.1501 58.3317 15.2445C58.28 15.3388 58.2546 15.4465 58.2546 15.5681C58.2546 15.6898 58.28 15.7974 58.3317 15.8918C58.3833 15.9861 58.453 16.059 58.5424 16.1111C58.6309 16.1633 58.7317 16.1889 58.8432 16.1889C58.9547 16.1889 59.0555 16.1633 59.1441 16.1111Z"
            fill="white"></path>
        <path
            d="M62.4652 14.7853C62.5988 14.8606 62.7037 14.9657 62.7791 15.1006C62.8546 15.2356 62.8923 15.392 62.8923 15.5683C62.8923 15.7446 62.8546 15.9019 62.7791 16.0377C62.7037 16.1734 62.5988 16.2794 62.4652 16.3547C62.3315 16.43 62.1807 16.4673 62.0118 16.4673C61.8872 16.4673 61.7724 16.4433 61.6683 16.3944C61.5642 16.3456 61.4757 16.2752 61.4035 16.1817V17.0906H61.0879V14.6884H61.3904V14.9674C61.4609 14.8697 61.5494 14.7969 61.6568 14.7464C61.7642 14.6967 61.8823 14.6719 62.0118 14.6719C62.1807 14.6719 62.3315 14.7091 62.4652 14.7844V14.7853ZM62.2864 16.1113C62.375 16.0592 62.4455 15.9863 62.4971 15.892C62.5488 15.7976 62.5742 15.69 62.5742 15.5683C62.5742 15.4466 62.5488 15.339 62.4971 15.2447C62.4455 15.1503 62.3758 15.0783 62.2864 15.027C62.1979 14.9757 62.0971 14.9508 61.9856 14.9508C61.8741 14.9508 61.7765 14.9765 61.688 15.0286C61.5994 15.0808 61.5289 15.1528 61.4773 15.2463C61.4256 15.339 61.4002 15.4466 61.4002 15.5683C61.4002 15.69 61.4256 15.7976 61.4757 15.892C61.5257 15.9863 61.5962 16.0592 61.6863 16.1113C61.7757 16.1635 61.8757 16.1891 61.9856 16.1891C62.0954 16.1891 62.1979 16.1635 62.2864 16.1113Z"
            fill="white"></path>
        <path
            d="M64.5079 14.8521C64.6358 14.9713 64.7005 15.1493 64.7005 15.386V16.448H64.4013V16.2154C64.3488 16.2974 64.2734 16.3595 64.1759 16.4033C64.0783 16.4464 63.9627 16.4679 63.8291 16.4679C63.634 16.4679 63.4782 16.4199 63.361 16.3255C63.2438 16.2303 63.1855 16.1053 63.1855 15.9506C63.1855 15.7958 63.2413 15.6716 63.3528 15.5772C63.4643 15.4829 63.6422 15.4365 63.8848 15.4365H64.3849V15.3736C64.3849 15.2362 64.3456 15.1311 64.2669 15.0582C64.1882 14.9854 64.0717 14.949 63.9184 14.949C63.8152 14.949 63.7143 14.9664 63.6159 15.0003C63.5176 15.0342 63.4339 15.0806 63.3659 15.1377L63.2347 14.8985C63.3241 14.8256 63.4323 14.7694 63.5569 14.7313C63.6815 14.6924 63.8143 14.6733 63.9545 14.6733C64.1955 14.6733 64.38 14.7329 64.5087 14.8521H64.5079ZM64.1939 16.1418C64.2816 16.0871 64.3447 16.011 64.3849 15.9108V15.665H63.8988C63.6315 15.665 63.4979 15.756 63.4979 15.9373C63.4979 16.0259 63.5315 16.0954 63.5995 16.1467C63.6676 16.1981 63.7619 16.2229 63.8824 16.2229C64.0029 16.2229 64.107 16.1956 64.1947 16.1418H64.1939Z"
            fill="white"></path>
        <path
            d="M66.4518 15.6818C66.5158 15.7505 66.5469 15.8358 66.5469 15.9376C66.5469 16.0394 66.5117 16.1338 66.442 16.2149C66.3715 16.296 66.2748 16.3589 66.151 16.4044C66.0272 16.45 65.8886 16.4723 65.7353 16.4723C65.6058 16.4723 65.4796 16.4549 65.3558 16.421C65.232 16.3871 65.1221 16.3374 65.0254 16.2737L65.1205 16.0311C65.2033 16.0841 65.2992 16.1255 65.4066 16.1553C65.514 16.1851 65.6222 16.2 65.7321 16.2C65.8813 16.2 66.0001 16.1743 66.0887 16.1222C66.1772 16.07 66.2215 15.9997 66.2215 15.9111C66.2215 15.8292 66.1854 15.7662 66.1149 15.7215C66.0436 15.6777 65.9436 15.6553 65.814 15.6553H65.4951V15.4269H65.7911C65.9091 15.4269 66.0026 15.4062 66.0706 15.364C66.1387 15.3217 66.1723 15.2646 66.1723 15.1918C66.1723 15.1123 66.1321 15.0502 66.0526 15.0055C65.9731 14.9617 65.8649 14.9393 65.7288 14.9393C65.5558 14.9393 65.373 14.9848 65.1795 15.0751L65.0943 14.8292C65.3066 14.7208 65.5287 14.667 65.7616 14.667C65.9018 14.667 66.028 14.6869 66.1395 14.7266C66.251 14.7663 66.3387 14.8226 66.4026 14.8955C66.4658 14.9683 66.4977 15.0511 66.4977 15.1446C66.4977 15.2307 66.469 15.3085 66.4125 15.3772C66.3559 15.4459 66.2789 15.4981 66.1821 15.5328C66.2985 15.5634 66.3879 15.6139 66.4518 15.6818Z"
            fill="white"></path>
        <path
            d="M68.5513 15.9639C68.5513 16.1187 68.494 16.2379 68.3792 16.3224C68.2644 16.406 68.0923 16.4482 67.8652 16.4482H67.0273V14.6892H67.8357C68.0414 14.6892 68.2029 14.7281 68.3185 14.8068C68.4349 14.8854 68.4923 14.9963 68.4923 15.1403C68.4923 15.233 68.4677 15.3133 68.4185 15.3812C68.3694 15.4491 68.3005 15.5004 68.2128 15.5352C68.4382 15.5931 68.5513 15.7355 68.5513 15.9631V15.9639ZM67.3356 15.4466H67.8086C67.9291 15.4466 68.0209 15.4243 68.0832 15.3804C68.1455 15.3365 68.1767 15.2719 68.1767 15.1875C68.1767 15.0195 68.0537 14.9351 67.8086 14.9351H67.3356V15.4466ZM68.1373 16.1403C68.2029 16.098 68.2357 16.0326 68.2357 15.9441C68.2357 15.8555 68.2054 15.786 68.1455 15.7413C68.0857 15.6966 67.9906 15.6751 67.8611 15.6751H67.3356V16.2023H67.8414C67.9726 16.2023 68.0718 16.1816 68.1373 16.1394V16.1403Z"
            fill="white"></path>
        <path
            d="M69.0439 14.6892H69.3596V15.9697L70.4278 14.6892H70.7139V16.4482H70.3982V15.1676L69.3333 16.4482H69.0439V14.6892Z"
            fill="white"></path>
        <path
            d="M72.6235 14.9682H71.9856V16.4482H71.67V14.9682H71.0322V14.6892H72.6226V14.9682H72.6235Z"
            fill="white"></path>
        <path
            d="M72.9453 14.6892H73.2609V15.9697L74.3291 14.6892H74.6152V16.4482H74.2996V15.1676L73.2347 16.4482H72.9453V14.6892Z"
            fill="white"></path>
        <path
            d="M76.6226 14.6892V16.4482H76.3398V15.8903H75.7979L75.4167 16.4482H75.0781L75.502 15.8472C75.3708 15.8075 75.27 15.7413 75.1995 15.6494C75.129 15.5575 75.0945 15.4433 75.0945 15.3059C75.0945 15.1047 75.1626 14.9516 75.2987 14.8465C75.4347 14.7414 75.6216 14.6892 75.8602 14.6892H76.6226ZM75.5266 15.5766C75.6003 15.6328 75.7102 15.661 75.8569 15.661H76.3398V14.9673H75.87C75.5675 14.9673 75.4167 15.0832 75.4167 15.3158C75.4167 15.4334 75.4536 15.5203 75.5266 15.5766Z"
            fill="white"></path>
        <path
            d="M33.1157 18.3231C33.2862 18.4672 33.3723 18.665 33.3723 18.9166C33.3723 19.1683 33.287 19.3669 33.1157 19.5109C32.9452 19.655 32.7107 19.727 32.4123 19.727H31.8434V20.4306H31.5146V18.1079H32.4115C32.7091 18.1079 32.9436 18.1799 33.1149 18.324L33.1157 18.3231ZM32.8788 19.304C32.9886 19.2146 33.0427 19.0855 33.0427 18.9174C33.0427 18.7494 32.9878 18.6203 32.8788 18.5309C32.7689 18.4415 32.6107 18.3968 32.4025 18.3968H31.8434V19.4389H32.4025C32.6107 19.4389 32.7698 19.3942 32.8788 19.3048V19.304Z"
            fill="white"></path>
        <path
            d="M34.0496 20.3337C33.9119 20.2559 33.8037 20.1491 33.7258 20.0134C33.6479 19.8776 33.6094 19.7228 33.6094 19.5507C33.6094 19.3785 33.6479 19.2237 33.7258 19.0879C33.8037 18.9522 33.9119 18.8454 34.0496 18.7693C34.1873 18.6931 34.3431 18.655 34.5161 18.655C34.689 18.655 34.844 18.6931 34.9809 18.7693C35.1178 18.8454 35.2252 18.9514 35.3031 19.0879C35.381 19.2237 35.4195 19.3785 35.4195 19.5507C35.4195 19.7228 35.381 19.8776 35.3031 20.0134C35.2252 20.1491 35.1178 20.2559 34.9809 20.3337C34.844 20.4107 34.689 20.4496 34.5161 20.4496C34.3431 20.4496 34.1873 20.4107 34.0496 20.3337ZM34.8169 20.0928C34.9055 20.0407 34.9752 19.9678 35.0252 19.8735C35.076 19.7791 35.1006 19.6715 35.1006 19.5498C35.1006 19.4281 35.0752 19.3205 35.0252 19.2262C34.9752 19.1318 34.9055 19.0598 34.8169 19.0085C34.7284 18.9572 34.6276 18.9323 34.5161 18.9323C34.4046 18.9323 34.3046 18.958 34.2152 19.0085C34.1267 19.0598 34.0562 19.1318 34.0045 19.2262C33.9529 19.3205 33.9275 19.4281 33.9275 19.5498C33.9275 19.6715 33.9529 19.7791 34.0045 19.8735C34.0562 19.9678 34.1258 20.0407 34.2152 20.0928C34.3037 20.145 34.4046 20.1706 34.5161 20.1706C34.6276 20.1706 34.7284 20.145 34.8169 20.0928Z"
            fill="white"></path>
        <path
            d="M36.161 20.3337C36.0216 20.2559 35.9126 20.1491 35.8339 20.0134C35.7552 19.8776 35.7158 19.7228 35.7158 19.5507C35.7158 19.3785 35.7552 19.2237 35.8339 19.0879C35.9126 18.9522 36.0216 18.8454 36.161 18.7693C36.3003 18.6931 36.4586 18.655 36.6356 18.655C36.793 18.655 36.934 18.6873 37.0578 18.751C37.1816 18.8156 37.2775 18.9083 37.3456 19.03L37.1054 19.1856C37.0504 19.102 36.9824 19.0383 36.9012 18.9961C36.8201 18.9538 36.7307 18.9332 36.6315 18.9332C36.5176 18.9332 36.4151 18.9588 36.3241 19.0093C36.2331 19.0606 36.1618 19.1326 36.1101 19.227C36.0585 19.3214 36.0331 19.429 36.0331 19.5507C36.0331 19.6723 36.0585 19.7833 36.1101 19.8776C36.1618 19.972 36.2331 20.044 36.3241 20.0953C36.4151 20.1466 36.5176 20.1715 36.6315 20.1715C36.7299 20.1715 36.8201 20.1508 36.9012 20.1086C36.9824 20.0663 37.0504 20.0034 37.1054 19.919L37.3456 20.0713C37.2775 20.193 37.1816 20.2865 37.0578 20.3519C36.934 20.4173 36.793 20.4496 36.6356 20.4496C36.4586 20.4496 36.2995 20.4107 36.161 20.3337Z"
            fill="white"></path>
        <path
            d="M38.0116 20.3337C37.8722 20.2559 37.7632 20.1491 37.6845 20.0134C37.6058 19.8776 37.5664 19.7228 37.5664 19.5507C37.5664 19.3785 37.6058 19.2237 37.6845 19.0879C37.7632 18.9522 37.8722 18.8454 38.0116 18.7693C38.1509 18.6931 38.3091 18.655 38.4862 18.655C38.6436 18.655 38.7846 18.6873 38.9084 18.751C39.0322 18.8156 39.1281 18.9083 39.1962 19.03L38.956 19.1856C38.901 19.102 38.833 19.0383 38.7518 18.9961C38.6707 18.9538 38.5813 18.9332 38.4821 18.9332C38.3682 18.9332 38.2657 18.9588 38.1747 19.0093C38.0837 19.0606 38.0124 19.1326 37.9607 19.227C37.9091 19.3214 37.8837 19.429 37.8837 19.5507C37.8837 19.6723 37.9091 19.7833 37.9607 19.8776C38.0124 19.972 38.0837 20.044 38.1747 20.0953C38.2657 20.1466 38.3682 20.1715 38.4821 20.1715C38.5805 20.1715 38.6707 20.1508 38.7518 20.1086C38.833 20.0663 38.901 20.0034 38.956 19.919L39.1962 20.0713C39.1281 20.193 39.0322 20.2865 38.9084 20.3519C38.7846 20.4173 38.6436 20.4496 38.4862 20.4496C38.3091 20.4496 38.1501 20.4107 38.0116 20.3337Z"
            fill="white"></path>
        <path
            d="M39.6045 18.6716H39.9201V19.9522L40.9883 18.6716H41.2744V20.4306H40.9588V19.1501L39.8939 20.4306H39.6045V18.6716Z"
            fill="white"></path>
        <path
            d="M41.8848 18.6716H42.2004V19.9522L43.2686 18.6716H43.5547V20.4306H43.2391V19.1501L42.1742 20.4306H41.8848V18.6716ZM42.3217 18.3248C42.2315 18.2462 42.1856 18.1328 42.184 17.9846H42.398C42.4004 18.0666 42.4283 18.132 42.4816 18.1816C42.5357 18.2313 42.607 18.2561 42.6972 18.2561C42.7874 18.2561 42.8595 18.2313 42.9144 18.1816C42.9694 18.132 42.9972 18.0657 42.9997 17.9846H43.2202C43.2178 18.1328 43.171 18.2462 43.0792 18.3248C42.9874 18.4035 42.8611 18.4424 42.7013 18.4424C42.5414 18.4424 42.4127 18.4035 42.3234 18.3248H42.3217Z"
            fill="white"></path>
        <path
            d="M44.45 20.3337C44.3107 20.2559 44.2016 20.1491 44.1229 20.0134C44.0442 19.8776 44.0049 19.7228 44.0049 19.5507C44.0049 19.3785 44.0442 19.2237 44.1229 19.0879C44.2016 18.9522 44.3107 18.8454 44.45 18.7693C44.5894 18.6931 44.7476 18.655 44.9247 18.655C45.0821 18.655 45.2231 18.6873 45.3469 18.751C45.4707 18.8156 45.5666 18.9083 45.6346 19.03L45.3944 19.1856C45.3395 19.102 45.2715 19.0383 45.1903 18.9961C45.1091 18.9538 45.0198 18.9332 44.9206 18.9332C44.8066 18.9332 44.7042 18.9588 44.6132 19.0093C44.5222 19.0606 44.4509 19.1326 44.3992 19.227C44.3476 19.3214 44.3221 19.429 44.3221 19.5507C44.3221 19.6723 44.3476 19.7833 44.3992 19.8776C44.4509 19.972 44.5222 20.044 44.6132 20.0953C44.7042 20.1466 44.8066 20.1715 44.9206 20.1715C45.019 20.1715 45.1091 20.1508 45.1903 20.1086C45.2715 20.0663 45.3395 20.0034 45.3944 19.919L45.6346 20.0713C45.5666 20.193 45.4707 20.2865 45.3469 20.3519C45.2231 20.4173 45.0821 20.4496 44.9247 20.4496C44.7476 20.4496 44.5886 20.4107 44.45 20.3337Z"
            fill="white"></path>
        <path
            d="M46.7191 19.6873H46.3576V20.4306H46.042V18.6716H46.3576V19.415H46.7257L47.2914 18.6716H47.6299L46.9692 19.5176L47.6758 20.4298H47.3045L46.72 19.6865L46.7191 19.6873Z"
            fill="white"></path>
        <path
            d="M48.2273 20.3337C48.0896 20.2559 47.9814 20.1491 47.9035 20.0134C47.8256 19.8776 47.7871 19.7228 47.7871 19.5507C47.7871 19.3785 47.8256 19.2237 47.9035 19.0879C47.9814 18.9522 48.0896 18.8454 48.2273 18.7693C48.3659 18.6931 48.5208 18.655 48.6938 18.655C48.8668 18.655 49.0217 18.6931 49.1586 18.7693C49.2955 18.8454 49.4029 18.9514 49.4808 19.0879C49.5587 19.2237 49.5972 19.3785 49.5972 19.5507C49.5972 19.7228 49.5587 19.8776 49.4808 20.0134C49.4029 20.1491 49.2955 20.2559 49.1586 20.3337C49.0217 20.4107 48.8668 20.4496 48.6938 20.4496C48.5208 20.4496 48.3651 20.4107 48.2273 20.3337ZM48.9947 20.0928C49.0832 20.0407 49.1529 19.9678 49.2037 19.8735C49.2545 19.7791 49.2791 19.6715 49.2791 19.5498C49.2791 19.4281 49.2537 19.3205 49.2037 19.2262C49.1529 19.1318 49.084 19.0598 48.9947 19.0085C48.9061 18.9572 48.8053 18.9323 48.6938 18.9323C48.5823 18.9323 48.4815 18.958 48.3929 19.0085C48.3044 19.0598 48.2339 19.1318 48.1823 19.2262C48.1306 19.3205 48.1052 19.4281 48.1052 19.5498C48.1052 19.6715 48.1306 19.7791 48.1823 19.8735C48.2339 19.9678 48.3036 20.0407 48.3929 20.0928C48.4815 20.145 48.5815 20.1706 48.6938 20.1706C48.8061 20.1706 48.9061 20.145 48.9947 20.0928Z"
            fill="white"></path>
        <path
            d="M50.0547 18.6716H50.3703V19.9522L51.4385 18.6716H51.7246V20.4306H51.409V19.1501L50.3441 20.4306H50.0547V18.6716ZM50.4916 18.3248C50.4015 18.2462 50.3555 18.1328 50.3531 17.9846H50.5671C50.5695 18.0666 50.5974 18.132 50.6507 18.1816C50.704 18.2313 50.7761 18.2561 50.8655 18.2561C50.9548 18.2561 51.0278 18.2313 51.0827 18.1816C51.1376 18.132 51.1663 18.0657 51.168 17.9846H51.3885C51.386 18.1328 51.3393 18.2462 51.2467 18.3248C51.1549 18.4035 51.0286 18.4424 50.8687 18.4424C50.7089 18.4424 50.581 18.4035 50.4908 18.3248H50.4916Z"
            fill="white"></path>
        <path
            d="M55.4907 19.9884C55.2784 20.1631 54.9784 20.2574 54.5906 20.2707V20.5165H54.2848V20.2707C53.8971 20.2549 53.5962 20.1598 53.383 19.9851C53.1691 19.8104 53.0625 19.5704 53.0625 19.265C53.0625 18.9595 53.1691 18.7162 53.383 18.5415C53.597 18.3668 53.8971 18.2717 54.2848 18.2559V18.02H54.5906V18.2559C54.9759 18.2717 55.2759 18.3668 55.4891 18.5432C55.7031 18.7195 55.8096 18.9595 55.8096 19.265C55.8096 19.5704 55.7031 19.8138 55.4907 19.9884ZM53.6159 19.7947C53.7724 19.9222 53.9954 19.9942 54.2848 20.0116V18.5183C53.9913 18.5357 53.7675 18.6077 53.6126 18.7335C53.4585 18.8594 53.3806 19.0365 53.3806 19.2641C53.3806 19.4918 53.4593 19.6664 53.6159 19.7939V19.7947ZM55.2628 19.7947C55.417 19.6672 55.4948 19.4901 55.4948 19.2616C55.4948 19.0332 55.4161 18.8627 55.2596 18.736C55.103 18.6085 54.88 18.5365 54.5906 18.5192V20.0124C54.8841 19.995 55.1079 19.9222 55.2628 19.7955V19.7947Z"
            fill="white"></path>
        <path
            d="M57.8305 19.6566H56.4172C56.4369 19.8114 56.5041 19.9364 56.6197 20.0299C56.7344 20.1243 56.8779 20.1706 57.0484 20.1706C57.2567 20.1706 57.4239 20.1003 57.551 19.9587L57.7248 20.164C57.6461 20.2567 57.5477 20.3279 57.4304 20.3767C57.3132 20.4256 57.1821 20.4496 57.0378 20.4496C56.8533 20.4496 56.6902 20.4115 56.5483 20.3354C56.4057 20.2592 56.2959 20.1524 56.218 20.015C56.1401 19.8776 56.1016 19.7228 56.1016 19.5507C56.1016 19.3785 56.1393 19.2262 56.2147 19.0896C56.2901 18.9522 56.3942 18.8454 56.527 18.7693C56.6598 18.6931 56.809 18.655 56.9755 18.655C57.1419 18.655 57.2903 18.6931 57.4206 18.7693C57.551 18.8454 57.6526 18.9522 57.7264 19.0896C57.8002 19.227 57.8362 19.3843 57.8362 19.5606C57.8362 19.5846 57.8338 19.6169 57.8297 19.6566H57.8305ZM56.5967 19.0631C56.4951 19.1558 56.4352 19.2775 56.418 19.4281H57.5354C57.5182 19.28 57.4583 19.1591 57.3567 19.0648C57.255 18.9704 57.1279 18.9232 56.9771 18.9232C56.8263 18.9232 56.6992 18.9696 56.5975 19.0631H56.5967Z"
            fill="white"></path>
        <path
            d="M60.0697 20.1516V20.8387H59.7737V20.4306H58.3178V20.8387H58.0186V20.1516H58.1104C58.2219 20.145 58.2989 20.0656 58.3407 19.9124C58.3825 19.7593 58.4112 19.5441 58.426 19.2651L58.4522 18.6716H59.8033V20.1516H60.0697ZM58.6613 19.8379C58.6342 19.9828 58.5842 20.0871 58.5121 20.1516H59.4885V18.9506H58.7326L58.7162 19.2891C58.7072 19.5101 58.6892 19.6931 58.6621 19.8379H58.6613Z"
            fill="white"></path>
        <path
            d="M62.0473 19.6566H60.634C60.6537 19.8114 60.7209 19.9364 60.8365 20.0299C60.9512 20.1243 61.0947 20.1706 61.2652 20.1706C61.4735 20.1706 61.6407 20.1003 61.7678 19.9587L61.9416 20.164C61.8629 20.2567 61.7645 20.3279 61.6472 20.3767C61.53 20.4256 61.3988 20.4496 61.2546 20.4496C61.0701 20.4496 60.907 20.4115 60.7651 20.3354C60.6225 20.2592 60.5126 20.1524 60.4348 20.015C60.3569 19.8776 60.3184 19.7228 60.3184 19.5507C60.3184 19.3785 60.3561 19.2262 60.4315 19.0896C60.5069 18.9522 60.611 18.8454 60.7438 18.7693C60.8766 18.6931 61.0258 18.655 61.1923 18.655C61.3587 18.655 61.5071 18.6931 61.6374 18.7693C61.7678 18.8454 61.8694 18.9522 61.9432 19.0896C62.017 19.227 62.053 19.3843 62.053 19.5606C62.053 19.5846 62.0506 19.6169 62.0465 19.6566H62.0473ZM60.8135 19.0631C60.7119 19.1558 60.652 19.2775 60.6348 19.4281H61.7522C61.735 19.28 61.6751 19.1591 61.5735 19.0648C61.4718 18.9704 61.3447 18.9232 61.1939 18.9232C61.0431 18.9232 60.916 18.9696 60.8143 19.0631H60.8135Z"
            fill="white"></path>
        <path
            d="M63.9212 18.7677C64.0548 18.843 64.1598 18.9481 64.2352 19.0831C64.3106 19.218 64.3483 19.3744 64.3483 19.5507C64.3483 19.7271 64.3106 19.8843 64.2352 20.0201C64.1598 20.1558 64.0548 20.2618 63.9212 20.3371C63.7876 20.4124 63.6367 20.4497 63.4679 20.4497C63.3432 20.4497 63.2285 20.4257 63.1244 20.3768C63.0202 20.328 62.9317 20.2576 62.8596 20.1641V21.073H62.5439V18.6709H62.8465V18.9498C62.917 18.8521 63.0055 18.7793 63.1129 18.7288C63.2203 18.6791 63.3383 18.6543 63.4679 18.6543C63.6367 18.6543 63.7876 18.6915 63.9212 18.7669V18.7677ZM63.7425 20.0938C63.831 20.0416 63.9015 19.9688 63.9532 19.8744C64.0048 19.78 64.0302 19.6724 64.0302 19.5507C64.0302 19.4291 64.0048 19.3215 63.9532 19.2271C63.9015 19.1327 63.8318 19.0607 63.7425 19.0094C63.6539 18.9581 63.5531 18.9332 63.4416 18.9332C63.3301 18.9332 63.2326 18.9589 63.144 19.0111C63.0555 19.0632 62.985 19.1352 62.9333 19.2288C62.8817 19.3215 62.8563 19.4291 62.8563 19.5507C62.8563 19.6724 62.8817 19.78 62.9317 19.8744C62.9817 19.9688 63.0522 20.0416 63.1424 20.0938C63.2318 20.1459 63.3318 20.1716 63.4416 20.1716C63.5515 20.1716 63.6539 20.1459 63.7425 20.0938Z"
            fill="white"></path>
        <path
            d="M65.9639 18.8338C66.0918 18.953 66.1566 19.131 66.1566 19.3677V20.4297H65.8574V20.1971C65.8049 20.2791 65.7295 20.3412 65.6319 20.385C65.5344 20.4281 65.4188 20.4496 65.2851 20.4496C65.09 20.4496 64.9343 20.4016 64.817 20.3072C64.6998 20.212 64.6416 20.087 64.6416 19.9322C64.6416 19.7775 64.6973 19.6533 64.8088 19.5589C64.9203 19.4646 65.0982 19.4182 65.3409 19.4182H65.841V19.3553C65.841 19.2179 65.8016 19.1128 65.7229 19.0399C65.6442 18.9671 65.5278 18.9307 65.3745 18.9307C65.2712 18.9307 65.1704 18.9481 65.072 18.982C64.9736 19.0159 64.89 19.0623 64.822 19.1194L64.6908 18.8802C64.7801 18.8073 64.8884 18.751 65.013 18.713C65.1376 18.6741 65.2704 18.655 65.4106 18.655C65.6516 18.655 65.836 18.7146 65.9648 18.8338H65.9639ZM65.6499 20.1235C65.7377 20.0688 65.8008 19.9927 65.841 19.8925V19.6467H65.3548C65.0876 19.6467 64.9539 19.7377 64.9539 19.919C64.9539 20.0076 64.9876 20.0771 65.0556 20.1284C65.1236 20.1797 65.2179 20.2046 65.3384 20.2046C65.4589 20.2046 65.5631 20.1773 65.6508 20.1235H65.6499Z"
            fill="white"></path>
        <path
            d="M68.5847 20.1516V20.8519H68.2855V20.4306H66.7246V18.6716H67.0402V20.1516H67.9937V18.6716H68.3093V20.1516H68.5855H68.5847Z"
            fill="white"></path>
        <path
            d="M68.9922 18.6716H69.3078V19.9522L70.376 18.6716H70.6621V20.4306H70.3465V19.1501L69.2816 20.4306H68.9922V18.6716Z"
            fill="white"></path>
        <path
            d="M71.2725 18.6716H71.5881V19.9522L72.6563 18.6716H72.9424V20.4306H72.6268V19.1501L71.5618 20.4306H71.2725V18.6716Z"
            fill="white"></path>
    </g>
    <defs>
        <clipPath id="clip0_486_4382">
            <rect width="76.623" height="27.3654" fill="white" transform="translate(0 0.883301)"></rect>
        </clipPath>
    </defs>
</svg>